HIERARCHY
ROOT Hips
{
	OFFSET 0.719733 86.094200 2.458922
	CHANNELS 6 Xposition Yposition Zposition Zrotation Yrotation Xrotation 
	JOINT Spine
	{
		OFFSET 0.000000 8.814246 -2.080107
		CHANNELS 3 Zrotation Yrotation Xrotation
		JOINT Spine1
		{
			OFFSET -0.000000 8.844141 -0.000000
			CHANNELS 3 Zrotation Yrotation Xrotation
			JOINT Spine2
			{
				OFFSET -0.000000 11.682268 0.000000
				CHANNELS 3 Zrotation Yrotation Xrotation
				JOINT Spine3
				{
					OFFSET 0.000000 11.746700 0.000000
					CHANNELS 3 Zrotation Yrotation Xrotation
					JOINT Neck
					{
						OFFSET 0.000000 17.658264 0.000000
						CHANNELS 3 Zrotation Yrotation Xrotation
						JOINT Neck1
						{
							OFFSET -0.000000 5.101515 -0.000000
							CHANNELS 3 Zrotation Yrotation Xrotation
							JOINT Head
							{
								OFFSET 0.000000 5.101515 -0.000000
								CHANNELS 3 Zrotation Yrotation Xrotation
								JOINT HeadEnd
								{
									OFFSET 0.000000 11.655085 0.000000
									CHANNELS 3 Zrotation Yrotation Xrotation
									End Site
									{
										OFFSET 0.000000 0.000000 0.000000
									}
								}
							}
						}
					}
					JOINT RightShoulder
					{
						OFFSET -2.625389 11.175210 -0.000000
						CHANNELS 3 Zrotation Yrotation Xrotation
						JOINT RightArm
						{
							OFFSET 0.000000 10.434715 -0.000000
							CHANNELS 3 Zrotation Yrotation Xrotation
							JOINT RightForeArm
							{
								OFFSET -0.000000 29.628420 -0.000000
								CHANNELS 3 Zrotation Yrotation Xrotation
								JOINT RightHand
								{
									OFFSET 0.000000 22.857611 0.000000
									CHANNELS 3 Zrotation Yrotation Xrotation
									JOINT RightHandThumb1
									{
										OFFSET -2.867323 3.959563 2.944291
										CHANNELS 3 Zrotation Yrotation Xrotation
										JOINT RightHandThumb2
										{
											OFFSET -0.000000 3.350399 0.000000
											CHANNELS 3 Zrotation Yrotation Xrotation
											JOINT RightHandThumb3
											{
												OFFSET -0.000000 3.756509 -0.000000
												CHANNELS 3 Zrotation Yrotation Xrotation
												JOINT RightHandThumb4
												{
													OFFSET -0.000000 3.147345 -0.000000
													CHANNELS 3 Zrotation Yrotation Xrotation
													End Site
													{
														OFFSET 0.000000 0.000000 0.000000
													}
												}
											}
										}
									}
									JOINT RightHandIndex1
									{
										OFFSET -0.086752 10.030893 2.345280
										CHANNELS 3 Zrotation Yrotation Xrotation
										JOINT RightHandIndex2
										{
											OFFSET -0.000000 4.061090 -0.000000
											CHANNELS 3 Zrotation Yrotation Xrotation
											JOINT RightHandIndex3
											{
												OFFSET 0.000000 3.248873 0.000000
												CHANNELS 3 Zrotation Yrotation Xrotation
												JOINT RightHandIndex4
												{
													OFFSET -0.000000 2.639709 -0.000000
													CHANNELS 3 Zrotation Yrotation Xrotation
													End Site
													{
														OFFSET 0.000000 0.000000 0.000000
													}
												}
											}
										}
									}
									JOINT RightHandMiddle1
									{
										OFFSET 0.104102 9.502952 0.006768
										CHANNELS 3 Zrotation Yrotation Xrotation
										JOINT RightHandMiddle2
										{
											OFFSET -0.000000 4.568727 -0.000000
											CHANNELS 3 Zrotation Yrotation Xrotation
											JOINT RightHandMiddle3
											{
												OFFSET -0.000000 3.654981 0.000000
												CHANNELS 3 Zrotation Yrotation Xrotation
												JOINT RightHandMiddle4
												{
													OFFSET 0.000000 2.741236 0.000000
													CHANNELS 3 Zrotation Yrotation Xrotation
													End Site
													{
														OFFSET 0.000000 0.000000 0.000000
													}
												}
											}
										}
									}
									JOINT RightHandRing1
									{
										OFFSET 0.086752 8.921708 -2.267442
										CHANNELS 3 Zrotation Yrotation Xrotation
										JOINT RightHandRing2
										{
											OFFSET -0.000000 4.061090 -0.000000
											CHANNELS 3 Zrotation Yrotation Xrotation
											JOINT RightHandRing3
											{
												OFFSET -0.000000 3.654981 -0.000000
												CHANNELS 3 Zrotation Yrotation Xrotation
												JOINT RightHandRing4
												{
													OFFSET 0.000000 2.741236 0.000000
													CHANNELS 3 Zrotation Yrotation Xrotation
													End Site
													{
														OFFSET 0.000000 0.000000 0.000000
													}
												}
											}
										}
									}
									JOINT RightHandPinky1
									{
										OFFSET -0.173504 7.976997 -4.467199
										CHANNELS 3 Zrotation Yrotation Xrotation
										JOINT RightHandPinky2
										{
											OFFSET -0.000000 3.350399 -0.000000
											CHANNELS 3 Zrotation Yrotation Xrotation
											JOINT RightHandPinky3
											{
												OFFSET -0.000000 2.842763 -0.000000
												CHANNELS 3 Zrotation Yrotation Xrotation
												JOINT RightHandPinky4
												{
													OFFSET 0.000000 2.639709 0.000000
													CHANNELS 3 Zrotation Yrotation Xrotation
													End Site
													{
														OFFSET 0.000000 0.000000 0.000000
													}
												}
											}
										}
									}
									JOINT RightForeArmEnd
									{
										OFFSET 0.000000 0.000000 0.000000
										CHANNELS 3 Zrotation Yrotation Xrotation
										End Site
										{
											OFFSET 0.000000 0.000000 0.000000
										}
									}
								}
								JOINT RightArmEnd
								{
									OFFSET 0.000000 0.000000 0.000000
									CHANNELS 3 Zrotation Yrotation Xrotation
									End Site
									{
										OFFSET 0.000000 0.000000 0.000000
									}
								}
							}
						}
					}
					JOINT LeftShoulder
					{
						OFFSET 2.625389 11.175210 -0.000000
						CHANNELS 3 Zrotation Yrotation Xrotation
						JOINT LeftArm
						{
							OFFSET 0.000000 10.813635 -0.000000
							CHANNELS 3 Zrotation Yrotation Xrotation
							JOINT LeftForeArm
							{
								OFFSET -0.000000 28.724781 0.000000
								CHANNELS 3 Zrotation Yrotation Xrotation
								JOINT LeftHand
								{
									OFFSET 0.644384 25.716167 -0.328871
									CHANNELS 3 Zrotation Yrotation Xrotation
									JOINT LeftHandThumb1
									{
										OFFSET 2.867323 3.959563 2.944291
										CHANNELS 3 Zrotation Yrotation Xrotation
										JOINT LeftHandThumb2
										{
											OFFSET 0.000000 3.350399 -0.000000
											CHANNELS 3 Zrotation Yrotation Xrotation
											JOINT LeftHandThumb3
											{
												OFFSET -0.000000 3.756509 -0.000000
												CHANNELS 3 Zrotation Yrotation Xrotation
												JOINT LeftHandThumb4
												{
													OFFSET -0.000000 3.100000 0.000000
													CHANNELS 3 Zrotation Yrotation Xrotation
													End Site
													{
														OFFSET 0.000000 0.000000 0.000000
													}
												}
											}
										}
									}
									JOINT LeftHandIndex1
									{
										OFFSET 0.086752 10.030893 2.345280
										CHANNELS 3 Zrotation Yrotation Xrotation
										JOINT LeftHandIndex2
										{
											OFFSET -0.000000 4.061090 0.000000
											CHANNELS 3 Zrotation Yrotation Xrotation
											JOINT LeftHandIndex3
											{
												OFFSET -0.000000 3.248873 0.000000
												CHANNELS 3 Zrotation Yrotation Xrotation
												JOINT LeftHandIndex4
												{
													OFFSET 0.000000 2.639709 -0.000000
													CHANNELS 3 Zrotation Yrotation Xrotation
													End Site
													{
														OFFSET 0.000000 0.000000 0.000000
													}
												}
											}
										}
									}
									JOINT LeftHandMiddle1
									{
										OFFSET -0.104102 9.502952 0.006768
										CHANNELS 3 Zrotation Yrotation Xrotation
										JOINT LeftHandMiddle2
										{
											OFFSET -0.000000 4.568727 0.000000
											CHANNELS 3 Zrotation Yrotation Xrotation
											JOINT LeftHandMiddle3
											{
												OFFSET 0.000000 3.654981 0.000000
												CHANNELS 3 Zrotation Yrotation Xrotation
												JOINT LeftHandMiddle4
												{
													OFFSET 0.000000 2.741236 -0.000000
													CHANNELS 3 Zrotation Yrotation Xrotation
													End Site
													{
														OFFSET 0.000000 0.000000 0.000000
													}
												}
											}
										}
									}
									JOINT LeftHandRing1
									{
										OFFSET -0.086752 8.921708 -2.267442
										CHANNELS 3 Zrotation Yrotation Xrotation
										JOINT LeftHandRing2
										{
											OFFSET -0.000000 4.061090 0.000000
											CHANNELS 3 Zrotation Yrotation Xrotation
											JOINT LeftHandRing3
											{
												OFFSET -0.000000 3.654981 0.000000
												CHANNELS 3 Zrotation Yrotation Xrotation
												JOINT LeftHandRing4
												{
													OFFSET -0.000000 2.741236 0.000000
													CHANNELS 3 Zrotation Yrotation Xrotation
													End Site
													{
														OFFSET 0.000000 0.000000 0.000000
													}
												}
											}
										}
									}
									JOINT LeftHandPinky1
									{
										OFFSET 0.173504 7.976997 -4.467199
										CHANNELS 3 Zrotation Yrotation Xrotation
										JOINT LeftHandPinky2
										{
											OFFSET 0.000000 3.350399 -0.000000
											CHANNELS 3 Zrotation Yrotation Xrotation
											JOINT LeftHandPinky3
											{
												OFFSET -0.000000 2.842763 0.000000
												CHANNELS 3 Zrotation Yrotation Xrotation
												JOINT LeftHandPinky4
												{
													OFFSET -0.000000 2.639709 0.000000
													CHANNELS 3 Zrotation Yrotation Xrotation
													End Site
													{
														OFFSET 0.000000 0.000000 0.000000
													}
												}
											}
										}
									}
									JOINT LeftForeArmEnd
									{
										OFFSET 0.000000 0.000000 0.000000
										CHANNELS 3 Zrotation Yrotation Xrotation
										End Site
										{
											OFFSET 0.000000 0.000000 0.000000
										}
									}
								}
								JOINT LeftArmEnd
								{
									OFFSET 0.000000 0.000000 0.000000
									CHANNELS 3 Zrotation Yrotation Xrotation
									End Site
									{
										OFFSET 0.000000 0.000000 0.000000
									}
								}
							}
						}
					}
				}
			}
		}
	}
	JOINT RightUpLeg
	{
		OFFSET -11.289943 -0.000000 -0.000000
		CHANNELS 3 Zrotation Yrotation Xrotation
		JOINT RightLeg
		{
			OFFSET -0.000000 -38.200325 -0.000000
			CHANNELS 3 Zrotation Yrotation Xrotation
			JOINT RightFoot
			{
				OFFSET -0.000000 -39.900856 -0.000000
				CHANNELS 3 Zrotation Yrotation Xrotation
				JOINT RightToeBase
				{
					OFFSET 0.000000 0.000000 15.261641
					CHANNELS 3 Zrotation Yrotation Xrotation
					JOINT RightToeBaseEnd
					{
						OFFSET 0.000000 0.000000 7.370709
						CHANNELS 3 Zrotation Yrotation Xrotation
						End Site
						{
							OFFSET 0.000000 0.000000 0.000000
						}
					}
				}
				JOINT RightLegEnd
				{
					OFFSET 0.000000 0.000000 0.000000
					CHANNELS 3 Zrotation Yrotation Xrotation
					End Site
					{
						OFFSET 0.000000 0.000000 0.000000
					}
				}
			}
			JOINT RightUpLegEnd
			{
				OFFSET 0.000000 0.000000 0.000000
				CHANNELS 3 Zrotation Yrotation Xrotation
				End Site
				{
					OFFSET 0.000000 0.000000 0.000000
				}
			}
		}
	}
	JOINT LeftUpLeg
	{
		OFFSET 11.315661 0.000000 -0.000000
		CHANNELS 3 Zrotation Yrotation Xrotation
		JOINT LeftLeg
		{
			OFFSET -0.000000 -38.200325 -0.000000
			CHANNELS 3 Zrotation Yrotation Xrotation
			JOINT LeftFoot
			{
				OFFSET -0.000000 -39.900856 0.000000
				CHANNELS 3 Zrotation Yrotation Xrotation
				JOINT LeftToeBase
				{
					OFFSET -0.000000 0.000000 15.261641
					CHANNELS 3 Zrotation Yrotation Xrotation
					JOINT LeftToeBaseEnd
					{
						OFFSET -0.000000 -0.000000 7.539996
						CHANNELS 3 Zrotation Yrotation Xrotation
						End Site
						{
							OFFSET 0.000000 0.000000 0.000000
						}
					}
				}
				JOINT LeftLegEnd
				{
					OFFSET 0.000000 0.000000 0.000000
					CHANNELS 3 Zrotation Yrotation Xrotation
					End Site
					{
						OFFSET 0.000000 0.000000 0.000000
					}
				}
			}
			JOINT LeftUpLegEnd
			{
				OFFSET 0.000000 0.000000 0.000000
				CHANNELS 3 Zrotation Yrotation Xrotation
				End Site
				{
					OFFSET 0.000000 0.000000 0.000000
				}
			}
		}
	}
}
MOTION
Frames: 4
Frame Time: 0.016667
-2.974825 86.805817 10.587104 -1.821622 -6.562255 -13.266836 1.649668 -0.392407 6.314984 1.445723 -0.547994 4.056862 1.313740 -1.464311 12.066079 -1.611871 -0.337009 1.955992 2.928463 1.204848 7.546626 -4.070602 -1.139599 -8.795477 -0.019276 3.522998 -23.351416 0.000000 0.000000 0.000000 95.937820 -0.647785 5.159680 59.540428 -33.772610 6.513433 2.137039 20.683754 34.518475 -1.933048 14.208957 -14.463036 10.364554 -1.799630 40.112556 0.000014 0.000038 -24.898003 0.000026 0.000037 -17.214802 0.000008 -0.000004 -0.000046 14.611627 0.004281 -7.163580 9.351595 0.022312 0.062230 9.235501 0.048840 0.056314 -0.000007 0.000035 -0.000032 14.296422 -0.004436 -9.265473 9.646134 0.007015 0.004063 9.624447 0.013512 0.016414 0.000003 0.000111 -0.000011 15.770989 -0.027578 -11.221324 10.789782 -0.012284 0.005492 10.776968 -0.023048 0.000928 -0.000020 0.002272 0.000030 17.417038 0.084282 -14.676047 11.420055 -0.090283 0.206867 11.649837 -0.112754 0.137669 0.000342 -0.000012 -0.000002 0.000000 0.000000 0.000000 0.000000 0.000000 0.000000 -91.576164 0.139551 5.242705 -64.109650 31.458620 -2.490793 -1.456571 -13.288100 59.167267 8.387685 -14.020583 -15.976059 -5.622979 1.376213 42.030701 -0.000019 0.000025 -14.049995 -0.000103 -0.000012 -9.557813 0.000663 -0.000018 0.000729 2.620988 0.043998 -9.143565 -0.025690 -0.052528 -0.238489 -0.166510 -0.023486 -0.205274 0.000009 -0.001150 0.000012 0.111434 0.038205 -11.968293 -1.311260 -0.023335 -0.089955 -1.132422 0.000569 -0.067082 -0.003765 -0.000048 0.000110 -5.353862 0.023702 -13.446152 -4.630898 0.013324 0.074200 -4.512471 -0.007002 0.072345 -0.000263 0.000014 0.000006 -9.363770 0.126768 -15.671011 -7.700483 0.006605 0.196757 -7.630991 -0.032138 0.181915 0.000340 -0.000005 -0.000039 0.000000 0.000000 0.000000 0.000000 0.000000 0.000000 3.387585 0.427548 12.063786 -0.162555 -0.474181 16.541632 -6.083541 -12.030663 13.251572 -0.176443 -1.000684 -28.280867 0.000000 0.000000 0.000000 0.000000 0.000000 0.000000 0.000000 0.000000 0.000000 10.753950 3.550725 8.745346 0.385761 1.000750 23.426285 -1.868847 3.506060 13.459782 0.297078 0.738231 -29.510460 0.000000 0.000000 0.000000 0.000000 0.000000 0.000000 0.000000 0.000000 0.000000 
-3.128279 86.805412 10.544292 -1.792543 -6.471428 -13.259434 1.707046 -0.410283 6.317138 1.484476 -0.559705 4.085863 1.339914 -1.489311 12.035642 -1.629877 -0.339670 1.987765 2.705348 1.323306 7.624188 -4.073812 -1.069811 -8.748622 -0.059448 3.500493 -23.337048 0.000000 0.000000 0.000000 95.879982 -0.665479 5.107749 59.474087 -33.650452 6.406964 2.149096 20.727032 34.789001 -2.213371 14.358437 -14.462968 10.321100 -1.794197 40.130455 0.000014 0.000038 -24.803236 0.000025 0.000037 -17.152739 0.000008 -0.000004 -0.000046 14.515984 0.003753 -7.025354 9.289013 0.027684 0.055822 9.171394 0.053639 0.052069 -0.000007 0.000034 -0.000031 14.222566 -0.003988 -9.142618 9.572333 0.008914 0.003365 9.554475 0.014944 0.015727 0.000004 0.000111 -0.000011 15.697372 -0.026795 -11.142591 10.690742 -0.015631 0.007410 10.675485 -0.025218 0.001987 -0.000020 0.002230 0.000031 17.324835 0.087798 -14.639917 11.303239 -0.097901 0.211600 11.537713 -0.119140 0.140952 0.000356 -0.000012 -0.000002 0.000000 0.000000 0.000000 0.000000 0.000000 0.000000 -91.526138 0.136572 5.196421 -63.997860 31.270695 -2.303585 -1.414105 -13.389214 59.743984 9.175545 -13.313404 -15.729233 -5.298475 1.335564 42.172565 -0.000018 0.000025 -13.261973 -0.000105 -0.000012 -9.005606 0.000624 -0.000017 0.000776 4.158494 0.043901 -8.447742 0.647986 -0.055632 -0.280097 0.509850 -0.026417 -0.244433 0.000008 -0.001137 0.000011 1.615795 0.038066 -11.455169 -0.606328 -0.024682 -0.106930 -0.426611 -0.000740 -0.081749 -0.003784 -0.000048 0.000113 -3.778957 0.023599 -13.232190 -3.787701 0.015550 0.099110 -3.663839 -0.005153 0.090663 -0.000218 0.000015 0.000006 -7.805552 0.131553 -15.719401 -6.830679 0.010742 0.268853 -6.766046 -0.027945 0.239894 0.000358 -0.000005 -0.000038 0.000000 0.000000 0.000000 0.000000 0.000000 0.000000 3.443329 0.348207 12.057166 -0.160584 -0.470311 16.519962 -6.176363 -12.120881 13.264925 -0.177970 -1.007079 -28.289085 0.000000 0.000000 0.000000 0.000000 0.000000 0.000000 0.000000 0.000000 0.000000 10.826519 3.438134 8.596942 0.387147 1.002297 23.518515 -1.951085 3.441498 13.631415 0.289286 0.734670 -29.578777 0.000000 0.000000 0.000000 0.000000 0.000000 0.000000 0.000000 0.000000 0.000000 
-3.270951 86.804703 10.502688 -1.760723 -6.378301 -13.250191 1.762158 -0.428373 6.322358 1.518543 -0.570497 4.116802 1.366399 -1.519508 12.003748 -1.649700 -0.343283 2.017905 2.486857 1.437448 7.700254 -4.076480 -0.999167 -8.702861 -0.097937 3.477481 -23.318960 0.000000 0.000000 0.000000 95.807205 -0.681960 5.056848 59.431782 -33.478596 6.296298 2.163323 20.771065 35.042755 -2.522586 14.552187 -14.466269 10.264783 -1.787137 40.154785 0.000014 0.000038 -24.676229 0.000025 0.000037 -17.067982 0.000008 -0.000003 -0.000046 14.370369 0.003331 -6.870690 9.212339 0.032605 0.051207 9.094178 0.057959 0.049413 -0.000007 0.000033 -0.000031 14.100944 -0.003511 -9.008920 9.482141 0.010622 0.003502 9.467497 0.016206 0.015770 0.000004 0.000110 -0.000011 15.571810 -0.025923 -11.063137 10.567765 -0.018597 0.007977 10.549242 -0.027111 0.002034 -0.000020 0.002191 0.000031 17.187376 0.091671 -14.609713 11.158595 -0.104348 0.212561 11.397605 -0.124608 0.140852 0.000376 -0.000013 -0.000002 0.000000 0.000000 0.000000 0.000000 0.000000 0.000000 -91.469101 0.132299 5.155254 -63.893635 31.061546 -2.117469 -1.378125 -13.485671 60.293739 10.085391 -12.552332 -15.494015 -4.978160 1.293742 42.313305 -0.000017 0.000025 -12.484814 -0.000107 -0.000013 -8.460128 0.000577 -0.000016 0.000829 5.678985 0.043623 -7.753629 1.234410 -0.058713 -0.321507 1.097558 -0.029359 -0.283421 0.000008 -0.001124 0.000011 3.117299 0.037891 -10.935341 0.019345 -0.026041 -0.124135 0.200060 -0.002089 -0.096548 -0.003793 -0.000048 0.000116 -2.176374 0.023531 -13.000025 -2.993160 0.017991 0.124698 -2.865010 -0.003155 0.109427 -0.000182 0.000015 0.000006 -6.198162 0.136570 -15.730505 -5.976936 0.015514 0.344229 -5.917933 -0.023209 0.300562 0.000372 -0.000005 -0.000038 0.000000 0.000000 0.000000 0.000000 0.000000 0.000000 3.488980 0.272202 12.041401 -0.158774 -0.466950 16.511259 -6.259124 -12.208789 13.278215 -0.179570 -1.013025 -28.300236 0.000000 0.000000 0.000000 0.000000 0.000000 0.000000 0.000000 0.000000 0.000000 10.887357 3.326128 8.449797 0.388316 1.003417 23.601198 -2.026527 3.378859 13.800755 0.281263 0.730578 -29.643587 0.000000 0.000000 0.000000 0.000000 0.000000 0.000000 0.000000 0.000000 0.000000 
-3.403851 86.803734 10.462672 -1.727751 -6.283775 -13.237947 1.815074 -0.446641 6.329857 1.548261 -0.580296 4.149664 1.393421 -1.554546 11.968043 -1.671385 -0.348025 2.045593 2.274054 1.545432 7.771627 -4.078243 -0.929287 -8.659791 -0.133950 3.453912 -23.297625 0.000000 0.000000 0.000000 95.718735 -0.696901 5.006696 59.418591 -33.253437 6.175713 2.179999 20.816174 35.276520 -2.856596 14.795060 -14.472717 10.194941 -1.778437 40.185768 0.000014 0.000038 -24.515402 0.000025 0.000037 -16.959604 0.000008 -0.000003 -0.000045 14.166533 0.003071 -6.701388 9.114280 0.036994 0.048510 8.996171 0.061718 0.048485 -0.000007 0.000033 -0.000031 13.924777 -0.003002 -8.866613 9.369190 0.012092 0.004503 9.357165 0.017269 0.016567 0.000005 0.000110 -0.000011 15.390927 -0.024958 -10.984762 10.417333 -0.021108 0.007169 10.394481 -0.028662 0.001065 -0.000020 0.002152 0.000032 17.003433 0.095817 -14.588566 10.985304 -0.109438 0.209753 11.228620 -0.129023 0.137459 0.000400 -0.000013 -0.000001 0.000000 0.000000 0.000000 0.000000 0.000000 0.000000 -91.405190 0.125811 5.117641 -63.794415 30.826292 -1.935529 -1.348865 -13.582145 60.816875 11.090497 -11.762207 -15.267143 -4.667453 1.251562 42.450443 -0.000017 0.000025 -11.731798 -0.000108 -0.000013 -7.930878 0.000523 -0.000016 0.000885 7.160945 0.043193 -7.072936 1.730234 -0.061711 -0.361420 1.593440 -0.032248 -0.320990 0.000007 -0.001110 0.000010 4.589782 0.037655 -10.417833 0.559249 -0.027383 -0.141006 0.741346 -0.003448 -0.111013 -0.003790 -0.000048 0.000119 -0.585585 0.023499 -12.756017 -2.265150 0.020553 0.150054 -2.133935 -0.001083 0.127949 -0.000152 0.000016 0.000006 -4.589344 0.141531 -15.710776 -5.164972 0.020653 0.419796 -5.111979 -0.018181 0.361439 0.000383 -0.000005 -0.000037 0.000000 0.000000 0.000000 0.000000 0.000000 0.000000 3.527396 0.199436 12.016139 -0.157135 -0.463981 16.516150 -6.332686 -12.296586 13.292022 -0.181116 -1.018442 -28.315077 0.000000 0.000000 0.000000 0.000000 0.000000 0.000000 0.000000 0.000000 0.000000 10.938740 3.213117 8.302869 0.389328 1.004036 23.675709 -2.095791 3.316423 13.966957 0.273075 0.726228 -29.705185 0.000000 0.000000 0.000000 0.000000 0.000000 0.000000 0.000000 0.000000 0.000000 
